<svg width="676" height="417" viewBox="0 0 676 417" fill="none" xmlns="http://www.w3.org/2000/svg">
<g clip-path="url(#clip0)">
<path d="M303.017 417C246.858 417.05 192.695 396.171 151.095 358.438C150.89 358.252 150.768 357.992 150.755 357.716C150.741 357.44 150.838 357.17 151.023 356.965C151.209 356.76 151.468 356.637 151.744 356.624C152.02 356.61 152.291 356.706 152.496 356.891C193.712 394.277 247.376 414.962 303.017 414.913C381.113 414.913 452.378 375.253 493.65 308.824C493.723 308.707 493.817 308.605 493.928 308.525C494.04 308.445 494.166 308.388 494.299 308.356C494.433 308.325 494.571 308.32 494.707 308.343C494.842 308.365 494.972 308.413 495.088 308.486C495.205 308.558 495.306 308.653 495.386 308.765C495.465 308.876 495.523 309.002 495.554 309.136C495.585 309.27 495.589 309.408 495.566 309.543C495.544 309.679 495.495 309.808 495.422 309.925C475.124 342.685 446.795 369.717 413.123 388.456C379.45 407.195 341.55 417.02 303.017 417H303.017Z" fill="#6C63FF"/>
<path d="M483.604 310.642L484.136 312.662L494.081 310.035L495.975 320.15L498.027 319.763L495.718 307.445L483.604 310.642Z" fill="#6C63FF"/>
<path d="M162.652 355.815L162.708 357.903L152.424 358.164L153.436 368.404L151.357 368.608L150.128 356.135L162.652 355.815Z" fill="#6C63FF"/>
<path d="M207.41 164.721V277.11C207.41 277.482 207.337 277.85 207.195 278.193C207.053 278.536 206.845 278.848 206.582 279.111C206.32 279.374 206.008 279.582 205.665 279.724C205.322 279.867 204.954 279.94 204.583 279.94H13.8314C13.6956 279.941 13.56 279.931 13.426 279.909C12.7531 279.812 12.1377 279.475 11.6926 278.961C11.2475 278.448 11.0025 277.79 11.0024 277.11V164.721C11.0022 163.971 11.2999 163.251 11.8301 162.721C12.3603 162.19 13.0795 161.892 13.8295 161.892H204.581C204.952 161.891 205.32 161.965 205.663 162.107C206.006 162.249 206.318 162.457 206.581 162.719C206.843 162.982 207.052 163.294 207.194 163.637C207.336 163.98 207.41 164.348 207.41 164.719V164.721Z" fill="#E6E6E6"/>
<path d="M59.0851 228.716C72.7923 228.716 83.9041 217.602 83.9041 203.892C83.9041 190.182 72.7923 179.068 59.0851 179.068C45.378 179.068 34.2661 190.182 34.2661 203.892C34.2661 217.602 45.378 228.716 59.0851 228.716Z" fill="#6C63FF"/>
<path d="M136.915 280.391H15.1601C15.0076 280.393 14.8553 280.381 14.7051 280.355L72.2894 180.59C72.6408 179.969 73.1509 179.452 73.7674 179.092C74.3839 178.733 75.0848 178.543 75.7986 178.543C76.5123 178.543 77.2132 178.733 77.8298 179.092C78.4463 179.452 78.9563 179.969 79.3078 180.59L117.954 247.54L119.806 250.743L136.915 280.391Z" fill="#3F3D56"/>
<path opacity="0.2" d="M136.915 280.39H95.3447L115.751 250.743L117.22 248.608L117.954 247.539L119.806 250.743L136.915 280.39Z" fill="black"/>
<path d="M204.707 280.391H99.3989L119.805 250.743L121.274 248.608L147.866 209.971C149.609 207.439 153.803 207.282 155.853 209.494C155.99 209.645 156.118 209.804 156.235 209.971L204.707 280.391Z" fill="#3F3D56"/>
<path d="M218.142 157.623C217.509 155.872 216.353 154.357 214.829 153.286C213.306 152.215 211.491 151.639 209.629 151.636H9.04488C7.85696 151.636 6.6806 151.87 5.58301 152.324C4.48543 152.779 3.48815 153.445 2.64817 154.285C1.80818 155.125 1.14196 156.123 0.687571 157.22C0.233185 158.318 -0.000456276 159.495 6.68956e-07 160.683V319.267C0.00339859 321.665 0.957429 323.964 2.65294 325.66C4.34844 327.356 6.64707 328.31 9.04488 328.314H209.629C212.026 328.31 214.325 327.356 216.021 325.66C217.716 323.964 218.67 321.665 218.674 319.267V160.683C218.675 159.64 218.495 158.604 218.142 157.623ZM217.609 319.267C217.607 321.383 216.765 323.412 215.269 324.908C213.773 326.405 211.745 327.247 209.629 327.249H9.04488C6.92903 327.247 4.90058 326.405 3.40444 324.908C1.90831 323.412 1.06664 321.383 1.06407 319.267V160.683C1.06664 158.567 1.9083 156.538 3.40444 155.041C4.90057 153.545 6.92902 152.703 9.04486 152.701H209.629C211.745 152.703 213.773 153.545 215.269 155.042C216.765 156.538 217.607 158.567 217.609 160.683V319.267Z" fill="#3F3D56"/>
<path d="M658.173 20.709V198.585C658.173 199.173 658.057 199.755 657.833 200.298C657.608 200.842 657.278 201.335 656.863 201.751C656.447 202.167 655.954 202.497 655.411 202.722C654.868 202.947 654.286 203.063 653.698 203.063H351.801C351.586 203.065 351.371 203.048 351.159 203.013C350.094 202.86 349.12 202.328 348.416 201.515C347.711 200.701 347.323 199.661 347.323 198.585V20.709C347.323 20.1211 347.439 19.5389 347.663 18.9957C347.888 18.4524 348.218 17.9588 348.633 17.543C349.049 17.1271 349.542 16.7972 350.085 16.5721C350.628 16.3469 351.21 16.2309 351.798 16.2307H653.695C654.283 16.2305 654.865 16.3461 655.408 16.5709C655.951 16.7957 656.445 17.1253 656.861 17.5409C657.276 17.9564 657.606 18.4499 657.831 18.9929C658.057 19.536 658.172 20.1181 658.173 20.706V20.709Z" fill="#E6E6E6"/>
<path d="M423.423 121.992C445.117 121.992 462.704 104.402 462.704 82.704C462.704 61.0056 445.117 43.4156 423.423 43.4156C401.729 43.4156 384.143 61.0056 384.143 82.704C384.143 104.402 401.729 121.992 423.423 121.992Z" fill="#6C63FF"/>
<path d="M546.602 203.776H353.904C353.662 203.78 353.421 203.76 353.184 203.719L444.321 45.8244C444.877 44.841 445.684 44.023 446.66 43.4538C447.636 42.8846 448.745 42.5847 449.875 42.5847C451.005 42.5847 452.114 42.8846 453.09 43.4538C454.065 44.023 454.873 44.841 455.429 45.8244L516.593 151.784L519.524 156.854L546.602 203.776Z" fill="#3F3D56"/>
<path opacity="0.2" d="M546.602 203.776H480.811L513.107 156.855L515.432 153.475L516.594 151.784L519.524 156.855L546.602 203.776Z" fill="black"/>
<path d="M653.895 203.776H487.227L519.524 156.854L521.848 153.474L563.934 92.3257C566.693 88.3181 573.33 88.0685 576.574 91.5699C576.792 91.8087 576.995 92.0611 577.18 92.3257L653.895 203.776Z" fill="#3F3D56"/>
<path d="M675.158 9.47518C674.157 6.70314 672.326 4.30664 669.916 2.61139C667.505 0.916137 664.632 0.00436939 661.685 1.07686e-06H344.225C342.345 -0.000728359 340.483 0.369124 338.746 1.08842C337.009 1.80771 335.431 2.86233 334.101 4.19203C332.772 5.52173 331.717 7.10043 330.998 8.8379C330.279 10.5754 329.909 12.4376 329.91 14.318V265.305C329.916 269.101 331.425 272.739 334.109 275.423C336.792 278.107 340.43 279.618 344.225 279.623H661.685C665.48 279.618 669.118 278.107 671.801 275.423C674.485 272.739 675.995 269.101 676 265.305V14.318C676.003 12.6671 675.718 11.0283 675.158 9.47518V9.47518ZM674.316 265.305C674.312 268.654 672.98 271.865 670.612 274.234C668.244 276.602 665.033 277.934 661.685 277.939H344.225C340.877 277.934 337.666 276.602 335.298 274.234C332.93 271.865 331.598 268.654 331.594 265.305V14.318C331.598 10.9687 332.93 7.75764 335.298 5.38927C337.666 3.0209 340.877 1.68856 344.225 1.68448H661.685C665.033 1.68856 668.244 3.0209 670.612 5.38927C672.98 7.75764 674.312 10.9687 674.316 14.318V265.305Z" fill="#3F3D56"/>
<path d="M502.781 111.719L551.859 33.25H583.641L518.953 134.781L585.188 238H553.125L502.781 158.125L452.156 238H420.234L486.609 134.781L421.781 33.25H453.422L502.781 111.719Z" fill="#FF0000"/>
</g>
<defs>
<clipPath id="clip0">
<rect width="676" height="417" fill="white"/>
</clipPath>
</defs>
</svg>
