<svg width="234" height="614" viewBox="0 0 234 614" fill="none" xmlns="http://www.w3.org/2000/svg">
<g clip-path="url(#clip0)">
<path d="M220.802 439.882V559.122C220.802 559.515 220.725 559.906 220.573 560.27C220.422 560.634 220.2 560.965 219.921 561.244C219.641 561.523 219.31 561.744 218.944 561.894C218.579 562.046 218.188 562.123 217.792 562.123H14.7245C14.5799 562.125 14.4355 562.113 14.2929 562.09C13.5766 561.987 12.9215 561.63 12.4476 561.085C11.9737 560.54 11.7129 559.843 11.7129 559.122V439.882C11.7127 439.488 11.7905 439.098 11.9417 438.734C12.0928 438.37 12.3145 438.039 12.594 437.76C12.8734 437.481 13.2052 437.26 13.5705 437.109C13.9356 436.958 14.3272 436.881 14.7225 436.88H217.79C218.186 436.88 218.577 436.958 218.942 437.108C219.307 437.259 219.639 437.48 219.92 437.759C220.199 438.037 220.421 438.368 220.572 438.732C220.724 439.096 220.802 439.486 220.802 439.88V439.882Z" fill="#E6E6E6"/>
<path d="M188.422 538.674C203.014 538.674 214.843 526.882 214.843 512.337C214.843 497.791 203.014 486 188.422 486C173.829 486 162 497.791 162 512.337C162 526.882 173.829 538.674 188.422 538.674Z" fill="#6C63FF"/>
<path d="M145.755 562.601H16.1391C15.9768 562.604 15.8147 562.591 15.6548 562.563L76.9572 456.718C77.3314 456.059 77.8743 455.511 78.531 455.129C79.1869 454.748 79.9332 454.547 80.6929 454.547C81.4527 454.547 82.199 454.748 82.8556 455.129C83.5115 455.511 84.0545 456.059 84.4287 456.718L125.57 527.748L127.541 531.147L145.755 562.601Z" fill="#3F3D56"/>
<path opacity="0.2" d="M145.755 562.601H101.501L123.225 531.148L124.789 528.882L125.571 527.748L127.541 531.148L145.755 562.601Z" fill="black"/>
<path d="M217.924 562.601H105.817L127.541 531.147L129.105 528.881L157.413 487.89C159.269 485.204 163.734 485.037 165.916 487.384C166.063 487.544 166.198 487.713 166.323 487.89L217.924 562.601Z" fill="#3F3D56"/>
<path d="M232.227 432.352C231.553 430.493 230.322 428.887 228.701 427.751C227.079 426.614 225.146 426.003 223.164 426H9.6289C8.36428 426 7.11194 426.247 5.94351 426.73C4.77505 427.212 3.71337 427.919 2.81914 428.81C1.92493 429.701 1.21569 430.76 0.731959 431.924C0.248237 433.089 -0.000489822 434.337 7.24189e-07 435.598V603.847C0.00361286 606.391 1.01924 608.83 2.82423 610.63C4.62922 612.429 7.07628 613.442 9.6289 613.445H223.164C225.717 613.442 228.163 612.429 229.969 610.63C231.774 608.83 232.79 606.391 232.793 603.847V435.598C232.795 434.491 232.603 433.393 232.227 432.352ZM231.66 603.847C231.657 606.092 230.761 608.245 229.169 609.832C227.576 611.42 225.416 612.313 223.164 612.316H9.6289C7.37643 612.313 5.21702 611.42 3.62428 609.832C2.03155 608.245 1.13556 606.092 1.13282 603.847V435.598C1.13556 433.353 2.03155 431.2 3.62428 429.613C5.21702 428.025 7.37643 427.132 9.6289 427.129H223.164C225.416 427.132 227.576 428.025 229.169 429.613C230.761 431.2 231.657 433.353 231.66 435.598V603.847Z" fill="#3F3D56"/>
</g>
<g clip-path="url(#clip1)">
<path d="M221.802 226.882V346.122C221.802 346.515 221.725 346.906 221.573 347.27C221.422 347.634 221.2 347.965 220.921 348.244C220.641 348.523 220.31 348.744 219.944 348.894C219.579 349.046 219.188 349.123 218.792 349.123H15.7245C15.5799 349.125 15.4355 349.113 15.2929 349.09C14.5766 348.987 13.9215 348.63 13.4476 348.085C12.9737 347.54 12.7129 346.843 12.7129 346.122V226.882C12.7127 226.488 12.7905 226.098 12.9417 225.734C13.0928 225.37 13.3145 225.039 13.594 224.76C13.8734 224.481 14.2052 224.26 14.5705 224.109C14.9356 223.958 15.3272 223.881 15.7225 223.88H218.79C219.186 223.88 219.577 223.958 219.942 224.108C220.307 224.259 220.639 224.48 220.92 224.759C221.199 225.037 221.421 225.368 221.572 225.732C221.724 226.096 221.802 226.486 221.802 226.88V226.882Z" fill="#E6E6E6"/>
<path d="M125.422 276.674C140.014 276.674 151.843 264.882 151.843 250.337C151.843 235.791 140.014 224 125.422 224C110.829 224 99 235.791 99 250.337C99 264.882 110.829 276.674 125.422 276.674Z" fill="#6C63FF"/>
<path d="M146.755 349.601H17.1391C16.9768 349.604 16.8147 349.591 16.6548 349.563L77.9572 243.718C78.3314 243.059 78.8743 242.511 79.531 242.129C80.1869 241.748 80.9332 241.547 81.6929 241.547C82.4527 241.547 83.199 241.748 83.8556 242.129C84.5115 242.511 85.0545 243.059 85.4287 243.718L126.57 314.748L128.541 318.147L146.755 349.601Z" fill="#3F3D56"/>
<path opacity="0.2" d="M146.755 349.601H102.501L124.225 318.148L125.789 315.882L126.571 314.748L128.541 318.148L146.755 349.601Z" fill="black"/>
<path d="M218.924 349.601H106.817L128.541 318.147L130.105 315.881L158.413 274.89C160.269 272.204 164.734 272.037 166.916 274.384C167.063 274.544 167.198 274.713 167.323 274.89L218.924 349.601Z" fill="#3F3D56"/>
<path d="M233.227 219.352C232.553 217.493 231.322 215.887 229.701 214.751C228.079 213.614 226.146 213.003 224.164 213H10.6289C9.36428 213 8.11194 213.247 6.94351 213.73C5.77505 214.212 4.71337 214.919 3.81914 215.81C2.92493 216.701 2.21569 217.76 1.73196 218.924C1.24824 220.089 0.99951 221.337 1 222.598V390.847C1.00361 393.391 2.01924 395.83 3.82423 397.63C5.62922 399.429 8.07628 400.442 10.6289 400.445H224.164C226.717 400.442 229.163 399.429 230.969 397.63C232.774 395.83 233.79 393.391 233.793 390.847V222.598C233.795 221.491 233.603 220.393 233.227 219.352ZM232.66 390.847C232.657 393.092 231.761 395.245 230.169 396.832C228.576 398.42 226.416 399.313 224.164 399.316H10.6289C8.37643 399.313 6.21702 398.42 4.62428 396.832C3.03155 395.245 2.13556 393.092 2.13282 390.847V222.598C2.13556 220.353 3.03155 218.2 4.62428 216.613C6.21702 215.025 8.37643 214.132 10.6289 214.129H224.164C226.416 214.132 228.576 215.025 230.169 216.613C231.761 218.2 232.657 220.353 232.66 222.598V390.847Z" fill="#3F3D56"/>
</g>
<g clip-path="url(#clip2)">
<path d="M221.802 13.8824V133.122C221.802 133.515 221.725 133.906 221.573 134.27C221.422 134.634 221.2 134.965 220.921 135.244C220.641 135.523 220.31 135.744 219.944 135.894C219.579 136.046 219.188 136.123 218.792 136.123H15.7245C15.5799 136.125 15.4355 136.113 15.2929 136.09C14.5766 135.987 13.9215 135.63 13.4476 135.085C12.9737 134.54 12.7129 133.843 12.7129 133.122V13.8824C12.7127 13.4883 12.7905 13.098 12.9417 12.7338C13.0928 12.3697 13.3145 12.0388 13.594 11.76C13.8734 11.4813 14.2052 11.2601 14.5705 11.1092C14.9356 10.9582 15.3272 10.8805 15.7225 10.8804H218.79C219.186 10.8802 219.577 10.9578 219.942 11.1084C220.307 11.2591 220.639 11.4801 220.92 11.7586C221.199 12.0372 221.421 12.368 221.572 12.732C221.724 13.0961 221.802 13.4862 221.802 13.8803V13.8824Z" fill="#E6E6E6"/>
<path d="M63.9001 81.7771C78.4922 81.7771 90.3215 69.9859 90.3215 55.4404C90.3215 40.8949 78.4922 29.1035 63.9001 29.1035C49.3079 29.1035 37.4785 40.8949 37.4785 55.4404C37.4785 69.9859 49.3079 81.7771 63.9001 81.7771Z" fill="#6C63FF"/>
<path d="M146.755 136.601H17.1391C16.9768 136.604 16.8147 136.591 16.6548 136.563L77.9572 30.7183C78.3314 30.0592 78.8743 29.5108 79.531 29.1292C80.1869 28.7477 80.9332 28.5466 81.6929 28.5466C82.4527 28.5466 83.199 28.7477 83.8556 29.1292C84.5115 29.5108 85.0545 30.0592 85.4287 30.7183L126.57 101.748L128.541 105.147L146.755 136.601Z" fill="#3F3D56"/>
<path opacity="0.2" d="M146.755 136.601H102.501L124.225 105.148L125.789 102.882L126.571 101.748L128.541 105.148L146.755 136.601Z" fill="black"/>
<path d="M218.924 136.601H106.817L128.541 105.147L130.105 102.881L158.413 61.8904C160.269 59.2039 164.734 59.0366 166.916 61.3837C167.063 61.5437 167.198 61.713 167.323 61.8904L218.924 136.601Z" fill="#3F3D56"/>
<path d="M233.227 6.35168C232.553 4.49345 231.322 2.88695 229.701 1.75054C228.079 0.614131 226.146 0.00292901 224.164 7.21872e-07H10.6289C9.36428 -0.000488254 8.11194 0.247442 6.94351 0.729616C5.77505 1.2118 4.71337 1.91876 3.81914 2.81013C2.92493 3.70149 2.21569 4.75977 1.73196 5.92449C1.24824 7.08922 0.99951 8.33748 1 9.59807V177.847C1.00361 180.391 2.01924 182.83 3.82423 184.63C5.62922 186.429 8.07628 187.442 10.6289 187.445H224.164C226.717 187.442 229.163 186.429 230.969 184.63C232.774 182.83 233.79 180.391 233.793 177.847V9.59807C233.795 8.4914 233.603 7.39277 233.227 6.35168ZM232.66 177.847C232.657 180.092 231.761 182.245 230.169 183.832C228.576 185.42 226.416 186.313 224.164 186.316H10.6289C8.37643 186.313 6.21702 185.42 4.62428 183.832C3.03155 182.245 2.13556 180.092 2.13282 177.847V9.59807C2.13556 7.35284 3.03155 5.20033 4.62428 3.61269C6.21702 2.02506 8.37643 1.13192 10.6289 1.12919H224.164C226.416 1.13192 228.576 2.02506 230.169 3.61269C231.761 5.20033 232.657 7.35284 232.66 9.59807V177.847Z" fill="#3F3D56"/>
</g>
<defs>
<clipPath id="clip0">
<rect width="233" height="188" fill="white" transform="translate(0 426)"/>
</clipPath>
<clipPath id="clip1">
<rect width="233" height="188" fill="white" transform="translate(1 213)"/>
</clipPath>
<clipPath id="clip2">
<rect width="233" height="188" fill="white" transform="translate(1)"/>
</clipPath>
</defs>
</svg>
